<svg xmlns="http://www.w3.org/2000/svg" viewBox="0 0 900 430" font-family="system-ui, -apple-system, 'Segoe UI', sans-serif" width="900" height="430">
<rect width="900" height="430" rx="12" fill="#fcfcfb" stroke="rgba(11,11,11,0.10)"/>
<defs><pattern id="hatchBlue" width="7" height="7" patternTransform="rotate(45)" patternUnits="userSpaceOnUse"><rect width="7" height="7" fill="#e6effb"/><line x1="0" y1="0" x2="0" y2="7" stroke="#2a78d6" stroke-width="1.6"/></pattern><pattern id="hatchOrange" width="7" height="7" patternTransform="rotate(45)" patternUnits="userSpaceOnUse"><rect width="7" height="7" fill="#fdeee7"/><line x1="0" y1="0" x2="0" y2="7" stroke="#eb6834" stroke-width="1.6"/></pattern><pattern id="hatchRed" width="7" height="7" patternTransform="rotate(45)" patternUnits="userSpaceOnUse"><rect width="7" height="7" fill="#fbe9e9"/><line x1="0" y1="0" x2="0" y2="7" stroke="#d03b3b" stroke-width="1.6"/></pattern><pattern id="hatchAqua" width="7" height="7" patternTransform="rotate(45)" patternUnits="userSpaceOnUse"><rect width="7" height="7" fill="#e4f5ee"/><line x1="0" y1="0" x2="0" y2="7" stroke="#1baf7a" stroke-width="1.6"/></pattern></defs>
<text x="20" y="30" font-size="16" fill="#0b0b0b" text-anchor="start" font-weight="600" >What the head unit went through</text>
<text x="20" y="50" font-size="12.5" fill="#898781" text-anchor="start" font-weight="normal" >two of the quieter streams in the file — same clock, one axis each</text>
<text x="60" y="86" font-size="12.5" fill="#0b0b0b" text-anchor="start" font-weight="600" >air temperature — 15 °C at 8:41 am, 30 °C by the finish</text>
<line x1="60" y1="194.1" x2="860" y2="194.1" stroke="#e1e0d9"/>
<text x="52" y="198.11764705882354" font-size="11" fill="#898781" text-anchor="end" font-weight="normal" >15°</text>
<line x1="60" y1="164.7" x2="860" y2="164.7" stroke="#e1e0d9"/>
<text x="52" y="168.70588235294116" font-size="11" fill="#898781" text-anchor="end" font-weight="normal" >20°</text>
<line x1="60" y1="135.3" x2="860" y2="135.3" stroke="#e1e0d9"/>
<text x="52" y="139.29411764705884" font-size="11" fill="#898781" text-anchor="end" font-weight="normal" >25°</text>
<line x1="60" y1="105.9" x2="860" y2="105.9" stroke="#e1e0d9"/>
<text x="52" y="109.88235294117648" font-size="11" fill="#898781" text-anchor="end" font-weight="normal" >30°</text>
<path d="M62.6,176.5 L65.0,176.5 L67.5,176.5 L70.1,176.5 L72.5,176.5 L75.1,170.6 L77.7,170.6 L80.1,176.5 L82.6,182.4 L85.2,182.4 L87.6,188.2 L90.2,188.2 L92.8,188.2 L95.2,188.2 L97.7,188.2 L100.3,188.2 L102.7,188.2 L105.3,188.2 L107.8,188.2 L110.3,188.2 L112.8,188.2 L115.4,188.2 L117.8,188.2 L120.4,188.2 L122.9,182.4 L125.4,182.4 L127.9,182.4 L130.5,182.4 L132.9,188.2 L135.5,188.2 L138.0,188.2 L140.5,188.2 L143.0,188.2 L145.6,194.1 L148.0,194.1 L150.6,194.1 L153.1,194.1 L155.5,194.1 L158.1,188.2 L160.7,182.4 L163.1,182.4 L165.7,182.4 L168.2,182.4 L170.6,182.4 L173.2,182.4 L175.8,176.5 L178.2,176.5 L180.8,170.6 L183.3,170.6 L185.7,170.6 L188.3,176.5 L190.9,176.5 L193.3,176.5 L195.8,182.4 L198.4,182.4 L200.8,182.4 L203.4,182.4 L206.0,182.4 L208.4,176.5 L210.9,176.5 L213.5,176.5 L215.9,170.6 L218.5,170.6 L221.1,170.6 L223.5,170.6 L226.0,170.6 L228.6,176.5 L231.0,176.5 L233.6,176.5 L236.2,176.5 L238.6,176.5 L241.1,176.5 L243.7,182.4 L246.1,182.4 L248.7,176.5 L251.2,176.5 L253.7,176.5 L256.2,176.5 L258.8,176.5 L261.2,176.5 L263.8,176.5 L266.3,176.5 L268.8,176.5 L271.3,176.5 L273.9,170.6 L276.3,164.7 L278.9,164.7 L281.4,164.7 L283.8,158.8 L286.4,158.8 L289.0,158.8 L291.4,158.8 L294.0,152.9 L296.5,158.8 L298.9,158.8 L301.5,152.9 L304.1,152.9 L306.5,152.9 L309.1,152.9 L311.6,152.9 L314.0,152.9 L316.6,152.9 L319.2,147.1 L321.6,147.1 L324.2,141.2 L326.7,141.2 L329.1,141.2 L331.7,141.2 L334.3,147.1 L336.7,147.1 L339.2,147.1 L341.8,147.1 L344.2,147.1 L346.8,152.9 L349.4,152.9 L351.8,158.8 L354.3,158.8 L356.9,158.8 L359.3,152.9 L361.9,152.9 L364.5,152.9 L366.9,147.1 L369.4,147.1 L372.0,147.1 L374.4,147.1 L377.0,141.2 L379.5,141.2 L382.0,141.2 L384.5,141.2 L387.1,141.2 L389.5,141.2 L392.1,141.2 L394.6,141.2 L397.1,141.2 L399.6,141.2 L402.2,141.2 L404.6,141.2 L407.2,141.2 L409.7,141.2 L412.2,135.3 L414.7,135.3 L417.3,135.3 L419.7,135.3 L422.3,135.3 L424.8,135.3 L427.2,135.3 L429.8,129.4 L432.4,129.4 L434.8,129.4 L437.4,129.4 L439.9,123.5 L442.3,123.5 L444.9,123.5 L447.5,123.5 L449.9,123.5 L452.5,123.5 L455.0,129.4 L457.4,129.4 L460.0,129.4 L462.6,135.3 L465.0,135.3 L467.5,135.3 L470.1,135.3 L472.5,141.2 L475.1,141.2 L477.7,141.2 L480.1,147.1 L482.6,141.2 L485.2,141.2 L487.6,141.2 L490.2,141.2 L492.8,141.2 L495.2,141.2 L497.7,147.1 L500.3,147.1 L502.7,152.9 L505.3,152.9 L507.8,152.9 L510.3,158.8 L512.8,158.8 L515.4,152.9 L517.8,152.9 L520.4,147.1 L522.9,147.1 L525.4,147.1 L527.9,147.1 L530.5,141.2 L532.9,135.3 L535.5,135.3 L538.0,129.4 L540.5,129.4 L543.0,123.5 L545.6,123.5 L548.0,123.5 L550.6,123.5 L553.1,123.5 L555.5,123.5 L558.1,123.5 L560.7,123.5 L563.1,123.5 L565.7,123.5 L568.2,123.5 L570.6,129.4 L573.2,135.3 L575.8,135.3 L578.2,135.3 L580.8,129.4 L583.3,123.5 L585.7,123.5 L588.3,117.6 L590.9,117.6 L593.3,117.6 L595.8,117.6 L598.4,123.5 L600.8,123.5 L603.4,123.5 L606.0,123.5 L608.4,123.5 L610.9,123.5 L613.5,129.4 L615.9,129.4 L618.5,129.4 L621.1,135.3 L623.5,129.4 L626.0,129.4 L628.6,123.5 L631.0,123.5 L633.6,117.6 L636.2,117.6 L638.6,117.6 L641.1,117.6 L643.7,123.5 L646.1,123.5 L648.7,129.4 L651.2,129.4 L653.7,135.3 L656.2,129.4 L658.8,129.4 L661.2,129.4 L663.8,123.5 L666.3,123.5 L668.8,123.5 L671.3,123.5 L673.9,123.5 L676.3,123.5 L678.9,123.5 L681.4,123.5 L683.8,123.5 L686.4,123.5 L689.0,123.5 L691.4,123.5 L694.0,123.5 L696.5,123.5 L698.9,117.6 L701.5,117.6 L704.1,117.6 L706.5,111.8 L709.1,111.8 L711.6,111.8 L714.0,105.9 L716.6,111.8 L719.2,111.8 L721.6,111.8 L724.2,111.8 L726.7,111.8 L729.1,105.9 L731.7,105.9 L734.3,111.8 L736.7,111.8 L739.2,105.9 L741.8,105.9 L744.2,105.9 L746.8,105.9 L749.4,111.8 L751.8,111.8 L754.3,111.8 L756.9,111.8 L759.3,111.8 L761.9,111.8 L764.5,111.8 L766.9,117.6 L769.4,117.6 L772.0,117.6 L774.4,117.6 L777.0,117.6 L779.5,123.5 L782.0,123.5 L784.5,129.4 L787.1,129.4 L789.5,129.4 L792.1,129.4 L794.6,129.4 L797.1,129.4 L799.6,135.3 L802.2,135.3 L804.6,135.3 L807.2,123.5 L809.7,117.6 L812.2,117.6 L814.7,111.8 L817.3,111.8 L819.7,111.8 L822.3,111.8 L824.8,111.8 L827.2,111.8 L829.8,105.9 L832.4,111.8 L834.8,111.8 L837.4,111.8 L839.9,111.8 L842.3,111.8 L844.9,105.9 L847.5,105.9 " fill="none" stroke="#eb6834" stroke-width="2"/>
<text x="60" y="246" font-size="12.5" fill="#0b0b0b" text-anchor="start" font-weight="600" >ELEMNT battery — 92% → 74% in 5h14m (about 3.5% per hour)</text>
<line x1="60" y1="348.0" x2="860" y2="348.0" stroke="#e1e0d9"/>
<text x="52" y="352.0" font-size="11" fill="#898781" text-anchor="end" font-weight="normal" >75%</text>
<line x1="60" y1="304.0" x2="860" y2="304.0" stroke="#e1e0d9"/>
<text x="52" y="308.0" font-size="11" fill="#898781" text-anchor="end" font-weight="normal" >85%</text>
<line x1="60" y1="260.0" x2="860" y2="260.0" stroke="#e1e0d9"/>
<text x="52" y="264.0" font-size="11" fill="#898781" text-anchor="end" font-weight="normal" >95%</text>
<path d="M60.2,273.2 L76.2,273.2 L76.2,282.0 L179.4,282.0 L179.4,286.4 L219.8,286.4 L219.8,290.8 L275.4,290.8 L275.4,295.2 L285.5,295.2 L285.5,299.6 L310.7,299.6 L310.7,308.4 L406.7,308.4 L406.7,312.8 L467.4,312.8 L467.4,317.2 L515.4,317.2 L515.4,321.6 L568.4,321.6 L568.4,326.0 L628.9,326.0 L628.9,330.4 L682.0,330.4 L682.0,334.8 L737.6,334.8 L737.6,339.2 L783.0,339.2 L783.0,343.6 L838.7,343.6 L838.7,352.4 " fill="none" stroke="#2a78d6" stroke-width="2"/>
<circle cx="60.2" cy="273.2" r="3" fill="#2a78d6" stroke="#fcfcfb" stroke-width="1.5"/>
<circle cx="76.2" cy="282.0" r="3" fill="#2a78d6" stroke="#fcfcfb" stroke-width="1.5"/>
<circle cx="179.4" cy="286.4" r="3" fill="#2a78d6" stroke="#fcfcfb" stroke-width="1.5"/>
<circle cx="219.8" cy="290.8" r="3" fill="#2a78d6" stroke="#fcfcfb" stroke-width="1.5"/>
<circle cx="275.4" cy="295.2" r="3" fill="#2a78d6" stroke="#fcfcfb" stroke-width="1.5"/>
<circle cx="285.5" cy="299.6" r="3" fill="#2a78d6" stroke="#fcfcfb" stroke-width="1.5"/>
<circle cx="310.7" cy="308.4" r="3" fill="#2a78d6" stroke="#fcfcfb" stroke-width="1.5"/>
<circle cx="406.7" cy="312.8" r="3" fill="#2a78d6" stroke="#fcfcfb" stroke-width="1.5"/>
<circle cx="467.4" cy="317.2" r="3" fill="#2a78d6" stroke="#fcfcfb" stroke-width="1.5"/>
<circle cx="515.4" cy="321.6" r="3" fill="#2a78d6" stroke="#fcfcfb" stroke-width="1.5"/>
<circle cx="568.4" cy="326.0" r="3" fill="#2a78d6" stroke="#fcfcfb" stroke-width="1.5"/>
<circle cx="628.9" cy="330.4" r="3" fill="#2a78d6" stroke="#fcfcfb" stroke-width="1.5"/>
<circle cx="682.0" cy="334.8" r="3" fill="#2a78d6" stroke="#fcfcfb" stroke-width="1.5"/>
<circle cx="737.6" cy="339.2" r="3" fill="#2a78d6" stroke="#fcfcfb" stroke-width="1.5"/>
<circle cx="783.0" cy="343.6" r="3" fill="#2a78d6" stroke="#fcfcfb" stroke-width="1.5"/>
<circle cx="838.7" cy="352.4" r="3" fill="#2a78d6" stroke="#fcfcfb" stroke-width="1.5"/>
<line x1="60" y1="370" x2="860" y2="370" stroke="#c3c2b7"/>
<line x1="60.0" y1="370" x2="60.0" y2="375" stroke="#c3c2b7"/>
<text x="60.0" y="390" font-size="11" fill="#898781" text-anchor="middle" font-weight="normal" >0h</text>
<line x1="210.9" y1="370" x2="210.9" y2="375" stroke="#c3c2b7"/>
<text x="210.9433962264151" y="390" font-size="11" fill="#898781" text-anchor="middle" font-weight="normal" >1h</text>
<line x1="361.9" y1="370" x2="361.9" y2="375" stroke="#c3c2b7"/>
<text x="361.8867924528302" y="390" font-size="11" fill="#898781" text-anchor="middle" font-weight="normal" >2h</text>
<line x1="512.8" y1="370" x2="512.8" y2="375" stroke="#c3c2b7"/>
<text x="512.8301886792453" y="390" font-size="11" fill="#898781" text-anchor="middle" font-weight="normal" >3h</text>
<line x1="663.8" y1="370" x2="663.8" y2="375" stroke="#c3c2b7"/>
<text x="663.7735849056604" y="390" font-size="11" fill="#898781" text-anchor="middle" font-weight="normal" >4h</text>
<line x1="814.7" y1="370" x2="814.7" y2="375" stroke="#c3c2b7"/>
<text x="814.7169811320755" y="390" font-size="11" fill="#898781" text-anchor="middle" font-weight="normal" >5h</text>
<text x="20" y="416" font-size="11" fill="#898781" text-anchor="start" font-weight="normal" >parsed with chiptime · temperature: native record stream · battery: battery_soc stream, 16 samples in 5¼ hours</text>
</svg>